<?xml version="1.0" encoding="UTF-8" standalone="no"?>
<!-- Created with Inkscape (http://www.inkscape.org/) -->

<svg
   width="100"
   height="38"
   viewBox="0 0 100 38"
   version="1.1"
   id="svg1"
   xmlns="http://www.w3.org/2000/svg"
   xmlns:svg="http://www.w3.org/2000/svg">
  <defs
     id="defs1" />
  <g
     id="layer1">
    <path
       d="m 17.064668,5.3348231 q 0,0.8610213 -0.591952,1.4529734 -0.591952,0.5650452 -1.452974,0.5650452 -0.861021,0 -1.533693,-0.5650452 -0.645766,-0.5650452 -0.645766,-1.4798803 0,-0.9148351 0.726486,-1.5067873 -0.188348,-0.618859 -0.645766,-1.0224627 -0.457417,-0.4305107 -1.130091,-0.4305107 -0.861021,0 -1.372252,0.5919521 -0.4843242,0.5650453 -0.726487,1.3991596 -0.2421617,0.8072075 -0.2959755,1.6951357 -0.053808,0.8879282 -0.053808,1.4798803 0,1.291532 0.1076276,2.5830638 0.1076277,1.264625 0.2421617,2.556157 h 5.2737552 v 2.44853 H 10.095777 L 11.521843,27.4254 q 0.05381,0.618859 0.107628,1.237718 0.08072,0.645766 0.08072,1.264625 0,1.39916 -0.376697,2.744506 -0.376697,1.372252 -1.156998,2.421622 -0.7533935,1.076277 -1.9372978,1.722043 -1.1569974,0.672672 -2.7175984,0.672672 -1.0762766,0 -2.0718325,-0.403603 Q 2.4811197,36.708286 1.7008191,36.008706 0.94742554,35.309126 0.49000798,34.340477 0.03259042,33.398735 0.03259042,32.295552 q 0,-0.887929 0.59195214,-1.452974 0.59195214,-0.565045 1.45297344,-0.565045 0.4036037,0 0.7803005,0.134535 0.4036037,0.161441 0.6995798,0.43051 0.322883,0.26907 0.4843245,0.618859 0.1883484,0.376697 0.1883484,0.807207 0,0.861022 -0.645766,1.506788 0.1883484,0.591952 0.645766,0.995556 0.4574175,0.430511 1.0762766,0.430511 0.7264867,0 1.1839043,-0.457418 0.4843244,-0.430511 0.7533936,-1.076277 0.2690697,-0.618858 0.3497899,-1.345346 0.1076276,-0.69958 0.1076276,-1.237718 0,-1.022463 -0.134534,-2.044925 Q 7.4588996,28.017352 7.2974581,26.994889 L 7.2705506,26.967983 5.8175772,15.102034 H 1.8084468 v -2.44853 H 5.548508 Q 5.4139734,11.631041 5.3332527,10.635485 5.2794389,9.6399295 5.2794389,8.6174668 q 0,-1.5067873 0.295976,-3.0404815 Q 5.871391,4.0432912 6.5978777,2.83248 7.3243644,1.5947619 8.5082687,0.81446133 9.7190805,0.03416079 11.521843,0.03416079 q 1.103184,0 2.09874,0.40360373 0.995555,0.40360368 1.748949,1.13009048 0.780301,0.6995798 1.237718,1.6682287 0.457418,0.968649 0.457418,2.0987394 z m 11.839043,9.8748379 -0.215256,3.686247 -11.650695,0.457418 0.161442,-4.870152 z m 21.579346,9.498141 -11.677602,0.08072 5.031593,-1.937298 V 18.00798 q 0,-1.426067 -0.726486,-2.260181 -0.69958,-0.861021 -2.152553,-0.861021 -0.726488,0 -1.560602,0.242162 -0.807207,0.242162 -1.210811,0.914835 l -0.591952,5.219941 q 0.269069,0.215256 0.834115,0.538139 0.591952,0.322883 1.21081,0.645766 0.69958,0.376696 1.506787,0.7803 l -11.058741,0.05381 4.520362,-1.856577 -0.807208,-6.484566 Q 33.020468,14.725341 31.998005,14.456272 30.975542,14.160295 30.033801,13.86432 28.957524,13.541435 27.800526,13.191646 l 10.682046,-1.775856 -0.134535,1.641321 q 0.941743,-0.376697 2.018019,-0.753394 1.076277,-0.376697 2.09874,-0.376697 2.448529,0 3.793874,1.31844 1.345346,1.318439 1.345346,3.793876 0,0.618858 -0.08072,1.399159 -0.05382,0.753394 -0.161444,1.533694 -0.107627,0.7803 -0.242162,1.560601 -0.107628,0.753393 -0.215256,1.399159 z M 64.367025,21.5866 q 0,0.188347 -0.02691,0.376696 0,0.188348 0,0.376697 l -10.951114,0.215256 q 0.349789,1.587507 1.587508,2.340901 1.237718,0.753393 2.798319,0.753393 0.753393,0 1.533694,-0.107627 0.7803,-0.107628 1.533694,-0.34979 0.753394,-0.242163 1.426067,-0.618859 0.672672,-0.403604 1.210811,-0.941742 -0.295973,1.130091 -0.995553,1.991112 -0.69958,0.861021 -1.668229,1.426066 -0.941743,0.565046 -2.071833,0.834115 -1.103183,0.295975 -2.206367,0.295975 -1.506787,0 -2.879039,-0.538138 -1.345346,-0.538138 -2.367809,-1.47988 -0.995556,-0.941742 -1.587509,-2.260181 -0.591952,-1.318439 -0.591952,-2.87904 0,-1.641321 0.672674,-2.986667 0.672672,-1.345346 1.775856,-2.287087 1.103183,-0.968649 2.556157,-1.479881 1.452973,-0.511231 3.040482,-0.511231 1.668228,0 2.986667,0.618858 1.345345,0.61886 2.287088,1.695137 0.941741,1.076276 1.426066,2.502342 0.511232,1.39916 0.511232,3.013575 z m -4.116759,-1.372252 q -0.05381,-0.726488 -0.295975,-1.39916 -0.242163,-0.672674 -0.672674,-1.183904 -0.43051,-0.511232 -1.049369,-0.807208 -0.591952,-0.322883 -1.399159,-0.322883 -0.807208,0 -1.39916,0.295976 -0.591952,0.295976 -0.995556,0.807207 -0.403604,0.484325 -0.672673,1.156998 -0.242163,0.645766 -0.376697,1.345346 z m 29.086376,-8.20661 -5.246849,1.856578 -6.027149,13.15748 -3.820782,-7.749191 -3.470991,7.66847 -6.296218,-13.022946 -5.058501,-2.09874 14.12613,-0.645766 -4.547268,1.910391 2.798319,6.269312 3.336458,-7.722285 3.551713,7.910633 2.744505,-5.946429 -3.901503,-2.098739 z m 10.547511,9.928651 q 0,1.345346 -0.61886,2.206367 -0.618858,0.861021 -1.560601,1.372253 -0.941741,0.484325 -2.098739,0.69958 -1.156997,0.188348 -2.233274,0.188348 -0.618859,0 -1.372253,-0.08072 -0.726486,-0.107628 -1.452973,-0.295977 -0.726486,-0.188347 -1.426066,-0.457417 -0.672674,-0.269069 -1.210812,-0.645766 l -2.179459,2.556157 0.834113,-8.233515 q 0.457418,0.995555 1.156998,1.883483 0.726486,0.887929 1.641322,1.560601 0.914835,0.672673 1.964205,1.076276 1.049369,0.376697 2.179459,0.376697 0.295977,0 0.672674,-0.02691 0.403603,-0.05381 0.753394,-0.188348 0.376696,-0.134534 0.618858,-0.376697 0.242163,-0.242162 0.242163,-0.645766 0,-0.457417 -0.484325,-0.834114 -0.484324,-0.403603 -1.13009,-0.672672 -0.645766,-0.295976 -1.291532,-0.484325 -0.645766,-0.215255 -0.968649,-0.322882 -0.914835,-0.269069 -2.018019,-0.726487 -1.076277,-0.484324 -2.018018,-1.13009 -0.914835,-0.672673 -1.533695,-1.560601 -0.618858,-0.914836 -0.618858,-2.09874 0,-1.13009 0.538138,-2.018019 0.565044,-0.887928 1.426066,-1.47988 0.861021,-0.618859 1.910391,-0.914835 1.076277,-0.322883 2.09874,-0.322883 1.614415,0 3.040481,0.591952 1.452973,0.565045 2.636877,1.641321 l 1.668229,-3.2288285 -0.349789,8.5025855 q -0.484325,-0.914835 -1.210812,-1.82967 -0.726486,-0.941743 -1.614415,-1.695137 -0.887928,-0.753393 -1.91039,-1.210811 -1.022463,-0.457417 -2.125647,-0.457417 -0.322883,0 -0.753394,0.08072 -0.403603,0.05381 -0.7803,0.215255 -0.34979,0.161441 -0.618859,0.457418 -0.242162,0.269069 -0.242162,0.69958 0,0.511232 0.376697,0.887929 0.403603,0.376696 0.941741,0.672672 0.565046,0.269069 1.130091,0.484324 0.591952,0.188349 0.968649,0.295977 0.968648,0.322883 2.17946,0.753394 1.210811,0.43051 2.287087,1.049369 1.076277,0.618859 1.802764,1.533695 0.753394,0.887927 0.753394,2.152552 z"
       id="text84"
       style="font-size:24px;font-family:'Fontdiner Swanky';-inkscape-font-specification:'Fontdiner Swanky';fill:#ffffff;stroke:#ffffff;stroke-width:0;paint-order:stroke fill markers"
       aria-label="f-news" />
  </g>
</svg>
