<?xml version="1.0" encoding="UTF-8" standalone="no"?>
<!-- Created with Inkscape (http://www.inkscape.org/) -->

<svg
   width="120"
   height="82"
   viewBox="0 0 120 82"
   version="1.1"
   id="svg1"
   sodipodi:docname="f_studiosvector_halloween.svg"
   inkscape:version="1.3.2 (091e20e, 2023-11-25, custom)"
   xmlns:inkscape="http://www.inkscape.org/namespaces/inkscape"
   xmlns:sodipodi="http://sodipodi.sourceforge.net/DTD/sodipodi-0.dtd"
   xmlns="http://www.w3.org/2000/svg"
   xmlns:svg="http://www.w3.org/2000/svg">
  <sodipodi:namedview
     id="namedview1"
     pagecolor="#ffffff"
     bordercolor="#111111"
     borderopacity="1"
     inkscape:showpageshadow="0"
     inkscape:pageopacity="0"
     inkscape:pagecheckerboard="1"
     inkscape:deskcolor="#d1d1d1"
     inkscape:zoom="6.8416667"
     inkscape:cx="60"
     inkscape:cy="57.369062"
     inkscape:window-width="1920"
     inkscape:window-height="1017"
     inkscape:window-x="-8"
     inkscape:window-y="-8"
     inkscape:window-maximized="1"
     inkscape:current-layer="svg1" />
  <defs
     id="defs1" />
  <g
     id="layer1"
     transform="translate(0,-16.949892)">
    <path
       d="M 0.04703053,97.987925 V 94.753698 H 13.012435 V 91.505223 H 0.04703053 V 81.788292 H 16.246663 V 85.02252 H 3.281258 v 3.248476 h 12.965405 v 9.716929 z m 19.44810847,0 V 78.539817 h 3.234228 v 3.248475 H 35.694771 V 85.02252 H 22.729367 v 9.731178 h 12.965404 v 3.234227 z m 19.448108,0 V 81.788292 h 3.234227 v 12.965406 h 9.731179 V 81.788292 H 55.14288 V 97.987925 Z M 71.356761,94.753698 V 85.02252 h -9.731178 v 9.731178 z M 58.391356,97.987925 V 81.788292 H 71.356761 V 75.30559 h 3.234227 v 22.682335 z m 19.448108,0 V 81.788292 h 3.234228 v 16.199633 z m 0,-19.448108 V 75.30559 h 3.234228 v 3.234227 z M 97.287568,94.753698 V 85.02252 h -9.731177 v 9.731178 z M 84.322164,97.987925 V 81.788292 H 100.5218 v 16.199633 z m 19.448116,0 v -3.234227 h 12.9654 v -3.248475 h -12.9654 v -9.716931 h 16.19962 v 3.234228 h -12.9654 v 3.248476 h 12.9654 v 9.716929 z"
       id="text1"
       style="font-size:29.2165px;font-family:Square;-inkscape-font-specification:Square;fill:#ffffff;stroke:#000000;stroke-width:0"
       aria-label="studios" />
    <rect
       style="fill:#a14000;fill-opacity:1;stroke:#000000;stroke-width:0;stroke-dasharray:none"
       id="rect1"
       width="53.675106"
       height="53.675106"
       x="33.443775"
       y="16.949892" />
    <path
       d="M 75.370856,39.199441 H 62.04573 V 35.103839 H 75.370856 V 24.432201 H 44.971108 V 61.119562 H 62.04573 V 49.178865 h 13.325126 z"
       id="text2"
       style="font-size:52.9258px;font-family:Xylitol;-inkscape-font-specification:Xylitol;fill:#ffffff;stroke:#000000;stroke-width:0"
       aria-label="f" />
  </g>
</svg>
